HIERARCHY
ROOT Hips
{
  OFFSET 126.406 89.8929 -60.0795
  CHANNELS 6 Xposition Yposition Zposition Zrotation Xrotation Yrotation
  JOINT ToSpine
  {
    OFFSET -2.69724 7.43032 -0.144315
    CHANNELS 3 Zrotation Xrotation Yrotation
    JOINT Spine
    {
      OFFSET -0.0310711 10.7595 1.96963
      CHANNELS 3 Zrotation Xrotation Yrotation
      JOINT Spine1
      {
        OFFSET 13.1342 3.43533 0.764692
        CHANNELS 3 Zrotation Xrotation Yrotation
        JOINT Neck
        {
          OFFSET 29.8703 7.82586 -0.130764
          CHANNELS 3 Zrotation Xrotation Yrotation
          JOINT Head
          {
            OFFSET 9.52751 0.295786 -0.907742
            CHANNELS 3 Zrotation Xrotation Yrotation
            End Site
            {
              OFFSET 16.4037 0.713936 2.7358
            }
          }
        }
        JOINT LeftShoulder
        {
          OFFSET 27.5574 4.95586 2.47156
          CHANNELS 3 Zrotation Xrotation Yrotation
          JOINT LeftArm
          {
            OFFSET 1.20734 -0.998971 20.1238
            CHANNELS 3 Zrotation Xrotation Yrotation
            JOINT LeftForeArm
            {
              OFFSET 26.8049 -0.0536703 -0.155908
              CHANNELS 3 Zrotation Xrotation Yrotation
              JOINT LeftHand
              {
                OFFSET 26.6817 0 0.320147
                CHANNELS 3 Zrotation Xrotation Yrotation
                End Site
                {
                  OFFSET 18.6119 0 0.382219
                }
              }
            }
          }
        }
        JOINT RightShoulder
        {
          OFFSET 27.5927 4.71444 -2.65209
          CHANNELS 3 Zrotation Xrotation Yrotation
          JOINT RightArm
          {
            OFFSET 2.83739 -1.17114 -18.7564
            CHANNELS 3 Zrotation Xrotation Yrotation
            JOINT RightForeArm
            {
              OFFSET 28.839 -0.0548439 1.22491
              CHANNELS 3 Zrotation Xrotation Yrotation
              JOINT RightHand
              {
                OFFSET 26.5114 0 -0.101894
                CHANNELS 3 Zrotation Xrotation Yrotation
                End Site
                {
                  OFFSET 18.2168 0 0
                }
              }
            }
          }
        }
      }
    }
  }
  JOINT LeftUpLeg
  {
    OFFSET -4.76168 -1.9167 -10.2353
    CHANNELS 3 Zrotation Xrotation Yrotation
    JOINT LeftLeg
    {
      OFFSET 2.55951 -42.0585 -8.02213
      CHANNELS 3 Zrotation Xrotation Yrotation
      JOINT LeftFoot
      {
        OFFSET 3.16357 -42.5282 -3.95426
        CHANNELS 3 Zrotation Xrotation Yrotation
        JOINT LeftToeBase
        {
          OFFSET 0.346054 -6.02161 12.8035
          CHANNELS 3 Zrotation Xrotation Yrotation
          End Site
          {
            OFFSET 0.134235 -1.35082 5.13018
          }
        }
      }
    }
  }
  JOINT RightUpLeg
  {
    OFFSET -4.94151 -1.41743 10.6446
    CHANNELS 3 Zrotation Xrotation Yrotation
    JOINT RightLeg
    {
      OFFSET -2.56294 -42.0364 -7.94377
      CHANNELS 3 Zrotation Xrotation Yrotation
      JOINT RightFoot
      {
        OFFSET -3.0952 -42.555 -4.02241
        CHANNELS 3 Zrotation Xrotation Yrotation
        JOINT RightToeBase
        {
          OFFSET -0.0828122 -6.13587 12.8035
          CHANNELS 3 Zrotation Xrotation Yrotation
          End Site
          {
            OFFSET -0.131328 -1.35082 5.13018
          }
        }
      }
    }
  }
}
MOTION
Frames:	6
Frame Time:	0.0333333
123.11 92.668 -58.0345 -56.7218 -57.2605 -147.452 -70.1915 0 88.8779 81.2512 71.9099 14.1129 3.67633 22.9781 -2.3674 -136.372 19.3427 -173.74 -148.516 55.2512 179.954 -0.954099 -19.9338 -30.8066 -123.273 12.9914 -91.7055 14.059 6.19751 -66.1641 0.420957 0.000577499 0.35866 -1.93869 8.78335 36.17 -50.3015 -21.4493 155.613 13.1769 4.05873 106.47 0.58676 0.000331236 0.0646653 -27.6417 17.1888 93.0502 -4.37088 50.7498 -10.6631 -2.93548 -2.36335 0.0437269 5.62637 -12.3976 2.72521 -58.0085 -8.86964 75.3056 2.37157 43.9354 1.98205 -13.8607 -6.07491 1.68562 2.38004 -31.8305 -13.1544 
123.869 91.8987 -58.5846 -62.5902 -51.1953 -153.719 -70.1915 0 88.8779 79.9616 71.7368 16.7967 6.72944 22.7763 -2.44275 -135.287 18.9532 -171.305 -144.909 53.7743 178.917 -1.28616 -20.5035 -32.9932 -126.311 7.40337 -88.1253 12.0043 5.97575 -63.4431 0.420957 0.000577499 0.35866 -1.66311 8.52038 33.5999 -49.7165 -20.3183 155.049 11.7658 3.36473 105.38 0.58676 0.000331236 0.0646653 -30.7014 16.5973 87.4189 -3.98719 48.8932 -10.0868 -4.01657 -3.13475 0.0738722 4.73305 -10.3785 1.18074 -56.6049 -9.46419 76.344 3.13728 43.9545 8.00765 -13.4292 -10.7842 1.46649 1.9482 -27.4876 -17.6996 
124.432 91.1671 -59.6039 -65.9259 -45.7684 -157.73 -70.1915 0 88.8779 83.2163 71.8528 13.1219 6.75162 22.2733 -1.0653 -135.029 18.1269 -168.55 -143.045 52.0047 178.365 -1.48507 -20.6915 -34.5512 -128.617 3.08162 -83.9166 11.0691 6.15601 -60.8338 0.420957 0.000577499 0.35866 -1.44453 8.05429 32.0661 -48.2064 -18.5985 155.57 7.87355 2.19445 105.06 0.58676 0.000331236 0.0646653 -31.0126 18.542 88.5092 -3.53224 50.2153 -4.75386 -1.96778 -3.92238 -0.210836 4.36667 -8.93094 -2.17856 -54.9307 -8.92195 77.0357 1.93076 42.852 -0.583129 -14.3772 -18.4554 1.12412 2.50544 -20.0313 1.20654 
124.92 90.3778 -60.7048 -67.32 -42.3292 -160.695 -70.1915 0 88.8779 84.4706 71.6165 9.34972 6.91665 21.5743 0.0891581 -135.778 16.7027 -167.318 -142.257 50.1935 177.953 -1.39252 -20.2548 -34.7055 -130.66 1.0574 -81.1076 8.85474 5.39432 -58.5293 0.420957 0.000577499 0.35866 -1.69191 7.76219 36.0805 -48.775 -14.6285 152.672 9.06728 2.42912 104.518 0.58676 0.000331236 0.0646653 -30.6756 19.9311 90.6823 -3.60593 51.7017 -3.58189 -1.07032 -3.987 -0.301757 4.33638 -9.19448 -0.65422 -50.9781 -8.31597 82.2671 2.05751 46.9319 -2.47599 -18.2526 -18.294 1.00736 2.91819 -23.162 0.387601 
125.36 89.6999 -60.9845 -69.6362 -41.6954 -164.277 -70.1915 0 88.8779 90.4009 70.9186 2.18927 7.34522 20.9896 -1.65189 -134.742 15.9494 -167.561 -140.583 49.0831 177.887 -1.51076 -20.5068 -35.2734 -132.5 -0.423593 -79.1037 8.48782 5.49383 -56.9799 0.420957 0.000577499 0.35866 -1.93536 7.5497 39.9777 -48.8789 -12.8888 149.205 8.18274 2.2966 105.154 0.58676 0.000331236 0.0646653 -32.6207 19.9045 93.2257 -3.73549 52.5313 -3.38707 -1.63299 -6.50113 -0.483583 3.32859 -6.99163 -0.799447 -49.7962 -10.3815 83.9045 2.53632 50.547 -2.02408 -18.9711 -19.2382 0.8968 3.05259 -24.3233 -0.0646813 
125.677 89.667 -60.8232 -69.8914 -40.8 -164.559 -70.1915 0 88.8779 88.1977 70.567 4.97959 8.83512 20.5222 -1.27986 -134.622 15.9166 -167.059 -139.126 48.3428 175.881 -1.95655 -21.3909 -37.3323 -132.52 -1.75546 -78.7973 9.12438 6.43143 -54.7607 0.420957 0.000577499 0.35866 -1.88743 7.72412 38.7479 -47.8985 -15.151 148.12 7.79314 2.15453 104.951 0.58676 0.000331236 0.0646653 -32.5361 21.7742 95.6472 -4.0693 53.1399 -4.98858 -1.44606 -6.40482 -0.488229 3.45054 -7.20442 -0.997565 -49.3297 -10.4918 84.2725 2.88308 50.7136 -0.182339 -18.9239 -18.5766 0.959705 2.8556 -24.138 -3.19867 
